<?xml version="1.0" encoding="utf-8"?>
<!-- Generator: Adobe Illustrator 24.3.0, SVG Export Plug-In . SVG Version: 6.00 Build 0)  -->
<svg version="1.1" id="Layer_1" xmlns="http://www.w3.org/2000/svg" xmlns:xlink="http://www.w3.org/1999/xlink" x="0px" y="0px"
	 viewBox="0 0 612 792" style="enable-background:new 0 0 612 792;" xml:space="preserve">
<g>
	<path d="M129.53,691.44c6.73,4.98,12.49,9.49,18.5,13.63c6.9,4.75,9.18,10.97,7.39,19.05c-3.54,15.92-7.11,31.85-10.32,47.84
		c-1.94,9.65-6.86,15.41-17.07,16.6c-6.56,0.76-12.99,2.57-20.59,4.14c0.57,3.49,0.9,6.65,1.64,9.71c1.1,4.53,2.39,9.02,3.81,13.45
		c2.16,6.75,0.38,12.36-4.28,17.45c-12.15,13.27-24.14,26.69-36.33,39.92c-6.08,6.6-8.38,6.88-16.66,3.4
		c-5.21-2.19-10.47-4.27-15.74-6.33c-0.54-0.21-1.27,0.09-3.03,0.27c-1.03,6.11-2.55,12.5-3.1,18.98
		c-1.01,11.9-6.45,19.52-18.11,23.53c-10.35,3.56-20.13,8.78-30.21,13.17c-17.35,7.56-22.78,6.53-36.54-6.69
		c-1.88-1.81-3.81-3.57-6.39-5.98c-4.31,7.02-8.42,13.44-12.24,20.03c-3.13,5.4-7.56,8.02-13.81,8.28
		c-17.31,0.7-34.63,1.3-51.89,2.58c-10.41,0.78-17.07-2.64-20.9-12.72c-2.78-7.33-7.06-14.1-11.23-22.22
		c-7.23,5.94-13.57,11.23-20,16.4c-6.75,5.43-8.35,5.34-16.07,1.08c-13.99-7.72-27.86-15.7-42.21-22.69
		c-8.62-4.2-12.66-10.19-12.61-19.52c0.02-4.58-0.44-9.17-0.72-14.56c-6.63,0.35-12.58,0.4-18.45,1.05
		c-5.97,0.66-10.21-1.5-13.75-6.18c-12.04-15.94-24.16-31.83-36.39-47.63c-4.32-5.57-5.03-11.26-2.36-17.76
		c3.02-7.35,5.62-14.87,8.77-23.28c-8.27-3.19-15.81-6.6-23.66-8.97c-7.82-2.37-11.34-7.38-12.32-15.09
		c-2.23-17.5-4.47-35-7.06-52.44c-0.99-6.68,1.22-11.71,5.87-16.08c6.26-5.89,12.53-11.79,19.72-18.55
		c-7.69-5.84-14.72-11.25-21.82-16.56c-7.31-5.47-7.93-6.7-4.89-14.99c6.53-17.82,13.41-35.51,19.86-53.36
		c2.84-7.86,7.3-12.04,16.28-11.2c5.86,0.55,11.88-0.5,19.41-0.92c-3.62-7.75-6.64-14.6-9.98-21.29c-5.58-11.19-5.39-12.26,2.97-22
		c10.41-12.13,20.88-24.23,30.77-36.78c5.15-6.54,10.73-9.37,18.98-7.27c7.08,1.8,14.34,2.92,22.95,4.63
		c1.68-11.25,3.32-22.21,5.04-33.69c-7.88-6.4-15.81-12.84-24.68-20.06c-0.92,1.67-1.68,2.48-1.83,3.4
		c-2.59,15.87-15.1,19.53-27.94,22.68c-13.48,3.31-27.13,2.4-40.76,1.23c-8.93-0.77-17.86-1.68-26.81-2.15
		c-11.35-0.61-17.29-4.24-20.82-15.15c-2.44-7.55-3.79-15.51-4.99-23.39c-1.4-9.2-2.17-18.49-3.07-27.76
		c-0.72-7.42,2.28-12.84,8.98-16.34c2.93-1.53,6.2-3.13,8.19-5.6c2.8-3.47,6.05-7.62,6.53-11.77c3.21-27.79,5.39-55.69,8.58-83.48
		c3.43-29.87,3.29-59.86,4.11-89.82c0.32-11.64,0.47-23.28,0.75-34.91c0.17-7.23,1.91-9.47,8.02-10.49
		c25.07-4.18,50.31-5.52,75.67-4.05c36.25,2.1,72.51,4.24,108.74,6.72c30.24,2.07,60.45,4.51,90.64,7.1
		c8.93,0.77,17.78,2.56,26.65,3.96c5.6,0.88,10.08-0.83,14.74-4.2c10.79-7.79,21.59-15.79,33.27-22.07
		c58.1-31.21,116.47-61.9,174.77-92.72c5.26-2.78,10.74-5.13,16.11-7.68c1.4-10.93,2.74-21.4,4.18-32.71
		c4.73-5.8,11.92-6.85,19.9-6.7c46.29,0.87,92.6,1.24,138.89,2.35c21.28,0.51,42.62,1.49,63.77,3.78
		c30.94,3.35,56.45,17.22,78.08,40.2c26.36,28.01,48.25,59.52,73.17,88.6c11.7,13.65,22.45,28.17,34.78,41.22
		c8.88,9.4,19.52,17.23,33.25,18.88c16.57,1.98,33.13,1.04,50.94,0.84c0-4.49-0.13-8.06,0.03-11.61
		c0.45-9.93,3.45-13.84,13.09-16.05c5.17-1.19,10.52-1.92,15.81-2.13c20.3-0.78,40.62-1.16,60.92-1.88
		c14.98-0.54,29.94-1.55,44.92-2.05c12.86-0.43,16.27,2.33,19.49,15.04c1.23,4.84,2.16,9.75,3.28,14.62c1.03,4.51,2.13,9,3.3,13.92
		c10.15,1.46,20.14,2.22,29.78,4.46c11.61,2.69,23.17,6.03,34.32,10.22c10.68,4.02,17.22,12.33,18.81,23.94
		c1.8,13.19,3.4,26.41,5.15,39.61c3.1,23.44,6.37,46.86,9.29,70.32c1.02,8.22,1.25,16.54,1.91,25.75
		c5.65,0.61,11.49,1.15,17.31,1.87c9.79,1.22,12.02,3.14,12.87,13.13c0.71,8.27,0.95,16.66,0.53,24.94
		c-0.74,14.3-2.09,28.57-3.3,42.84c-1.05,12.41-3.63,15.23-15.82,15.76c-10.62,0.46-21.34,0.87-31.89-0.11
		c-7.11-0.66-13.98-3.87-20.99-5.77c-7.77-2.11-14.56-5.67-19.51-13.3c-4.74,3.47-8.93,6.53-12.92,9.45
		c3.44,4.51,7.57,8.21,9.42,12.83c1.78,4.43,1.25,9.81,1.63,14.78c0.27,3.59,0.37,7.19,0.59,11.7c6.38-0.87,11.94-1.39,17.39-2.44
		c5.35-1.03,9.74,0.21,13.83,3.78c17.55,15.35,30.37,34.38,42.33,54.08c2.41,3.98,1.33,7.59-1.06,11.17
		c-3.65,5.47-7.17,11.03-11.23,17.32c6.36,3.31,11.82,6.34,17.45,9.03c6.09,2.91,9.86,7.28,11.64,13.99
		c4.7,17.69,9.85,35.27,14.87,52.88c2.16,7.58,0.63,13.55-6.31,18.19c-6.62,4.43-12.76,9.57-19.68,14.82
		c7.19,8.05,13.7,15.98,20.92,23.2c5.64,5.64,7.28,11.53,4.65,18.98c-5.33,15.06-10.49,30.19-15.69,45.29
		c-2.22,6.45-6.56,9.31-13.52,9.61c-7.81,0.34-15.58,1.78-24.65,2.9c3.78,9.11,7,16.68,10.07,24.31
		c5.09,12.69,3.99,15.91-6.18,25.18c-10.33,9.41-20.19,19.33-30.25,29.04c-3.11,3-6.14,6.11-9.32,9.04
		c-3.84,3.54-7.98,4.11-12.82,1.63c-5.52-2.83-11.07-5.9-18.26-6.41c-0.48,5.26-0.89,9.83-1.31,14.4
		c-0.55,6.03-3.21,10.7-8.54,13.86c-13.76,8.15-27.43,16.45-41.2,24.57c-2.56,1.51-5.43,2.51-8.15,3.75
		c-5.71,2.61-10.78,1.7-15.9-1.99c-6.41-4.62-13.24-8.68-20.03-13.07c-5.61,8.28-10.7,15.66-15.64,23.13
		c-3.62,5.49-8.44,8.04-15.12,7.82c-18.31-0.61-36.63-1.12-54.95-1.33c-8.45-0.1-13.68-4.05-16.92-11.54
		c-2.89-6.69-6.07-13.25-9.75-21.23c-7.73,5.14-14.87,9.74-21.87,14.57c-9.19,6.34-9.82,5.88-19.02-0.87
		c-12.07-8.85-24.39-17.49-37.33-24.97c-7.08-4.09-10.17-8.96-10.04-16.66c0.1-5.95,0.02-11.91,0.02-18.93
		c-4.05-0.33-7.2-0.71-10.37-0.8c-6.33-0.19-12.68-0.57-18.99-0.2c-6.12,0.36-9.96-2.34-13.25-7.12
		c-9.26-13.43-18.56-26.84-28.22-39.98c-4.37-5.95-5.49-11.86-2.95-18.72c2.77-7.47,5.33-15.03,8.2-23.18
		c-8.54-3.48-16.64-7.21-25.04-10.09c-7.25-2.48-10.84-6.91-11.37-14.53c-1.32-19.27-3.06-38.51-4.28-57.78
		c-0.22-3.42,1.23-6.94,2.03-11.02c-2.92-0.41-5.81-1.01-8.72-1.19c-12.64-0.77-25.29-1.23-37.91-2.2
		c-5.81-0.45-10.5,0.52-13.5,5.96c-0.32,0.57-0.89,1.01-1.23,1.57c-5.28,8.72-13.12,11.21-23,10.64
		c-13.3-0.76-26.65-0.77-39.98-0.75c-24.66,0.03-49.33-0.01-73.98,0.6c-12.95,0.32-25.92,1.58-38.79,3.16
		c-7.07,0.87-12.62-0.27-16.03-6.79c-5.99-11.49-14.9-15.2-27.79-13.18c-11.79,1.85-23.95,2.5-35.88,1.98
		C145.96,676.98,137.91,682.62,129.53,691.44z M490.63,361.28c-5.42,0.37-8.68,0.38-11.87,0.84c-8.88,1.28-17.93,2.03-26.57,4.29
		c-15.25,4-26.66,13.35-33.59,27.7c-1.05,2.18-1.36,4.72-2.42,8.56c24.32-14.73,47.57-13.19,71.02-2.2
		c4.51,2.11,9.21,3.9,13.95,5.44c15.37,5,31.17,8.83,47.05,3.85c10.35-3.24,20.18-8.46,29.78-13.65
		c9.14-4.95,17.67-11.02,28.15-17.67c-13.65,25.51-30.19,46.67-46.06,69.74c-22.57,1.44-46.13,3.16-69.71,4.31
		c-6.87,0.34-12.99,1.72-18.91,5.23c-39.25,23.27-78.59,46.39-117.88,69.6c-1.59,0.94-2.92,2.3-4.65,3.69
		c43.86,19.64,87.13,39.02,130.69,58.53c0.76-2.77,1.6-5.63,2.32-8.51c2.94-11.73,5.6-14.02,17.67-15.15
		c6.91-0.65,13.83-1.29,21.3-1.99c-2.39-8.32-4.64-15.91-6.73-23.55c-1.59-5.82-0.78-10.96,3.6-15.69
		c12-12.94,23.8-26.06,35.48-39.28c5.41-6.12,11.56-8.47,19.6-6.15c6.31,1.83,12.79,3.1,19.73,4.75c0.46-2.17,0.91-3.69,1.09-5.25
		c1.4-12.24,3.12-24.46,4-36.74c0.73-10.16,5.8-15.76,15.39-18.17c9.04-2.27,17.95-5.04,26.99-7.28c4.21-1.05,6.69-3.02,8.56-7.22
		c12.04-27.07,24.47-53.97,36.75-80.94c1.44-3.17,2.76-6.4,4.52-10.48c-7.91,0.56-15.7-3.11-19.02,9.24
		c-0.46-4.96-0.7-7.16-0.86-9.37c-0.73-10.55-0.17-21.39-2.4-31.61c-6.54-29.94-21.73-54.17-49.58-69.12
		c-16.64-8.93-34.61-13.66-52.96-17.26c-2.92-0.57-5.89-0.89-8.21-1.24c4.53,5.19,9.31,9.86,13.13,15.21
		c8.6,12.06,4.09,21.95-10.5,22.5c-19.09,0.72-37.32-3.06-52.73-15.02c-12.53-9.72-26.68-14.83-41.99-17.3
		c-28.92-4.68-57.09-2.18-84.26,9.31c-7.38,3.12-14.8,6.13-22.2,9.19c0.23,0.83,0.46,1.67,0.69,2.5
		c10.84-1.32,21.72-2.43,32.52-4.02c15.92-2.34,31.24-0.15,46.08,5.61c9.79,3.8,18.14,9.9,24.65,18.19
		c5.04,6.41,7.35,13.43,3.05,21.3c-4.51,8.25-11.66,13.24-20.8,13.29c-14.08,0.08-27.75-2.74-40.46-9.39
		c-7.37-3.85-14.98-7.26-22.58-10.67c-15.79-7.09-32.08-8.66-48.71-3.48c-8.57,2.67-17.02,5.73-25.4,8.95
		c-7.45,2.87-14.73,6.19-22.07,9.36c-12.89,5.58-25.98,5.61-38.95,0.71c-7.45-2.81-14.44-6.83-21.83-9.82
		c-10.77-4.35-21.43-9.47-32.65-12.08c-18.94-4.41-42.54,0.81-50.18,29.43c2.8-0.89,5.23-1.72,7.68-2.43
		c24.09-7.03,46.77-5.85,66.67,11.5c3.01,2.63,6.43,4.83,9.21,7.67c4.9,5.02,10.95,7.63,17.6,8.69c6.55,1.04,13.28,2.33,19.8,1.82
		c12.25-0.97,24.41-3.07,36.58-4.86c14.8-2.18,29.52-4.97,44.38-6.61c8.8-0.97,17.18,1.88,24.3,7.44
		c11.76,9.18,14.91,24.77,6.28,36.43c-11.09,14.98-24.58,26.5-45.21,24.08c-0.92-0.11-1.9,0.23-4.48,0.58
		c9.21,4.57,17.67,4.44,25.46,2.15c17.85-5.25,35.52-11.19,52.99-17.6c15.26-5.59,30.73-8.92,46.96-7.29
		C464.34,345.39,478.02,349.05,490.63,361.28z M731.13,822.87c81.27-0.26,147.08-65.89,146.35-147.22
		c-0.74-82.52-67.69-145.76-146.24-145.13c-83.29,0.67-146.33,65.99-146.35,146.07C584.87,757.84,650.76,823.12,731.13,822.87z
		 M-100.23,539.89c-58.8,0.5-138.77,45.07-142.58,139.27c-3.07,76.08,59.25,141.93,135.86,144.42c78.82,2.56,145-57.47,148.71-136.5
		C45.79,601.66-28.8,539.11-100.23,539.89z M535.12,171.91c4.94-0.83,9.4-1.59,15.41-2.6c-4.15-6.25-6.98-12.01-11.16-16.52
		c-13.55-14.64-27.3-29.11-41.5-43.11c-18.73-18.46-37.93-36.44-56.99-54.56c-6.51-6.19-13.16-12.25-19.82-18.28
		c-5.57-5.05-12.04-8.31-19.6-9.08c-6.28-0.64-12.57-1.49-18.87-1.64c-15.31-0.37-30.64-0.76-45.94-0.42
		c-10.59,0.23-21.27,0.97-31.68,2.77c-10.48,1.81-11.74,3.32-11.43,13.86c0.79,27.26,2.18,54.51,3.56,81.76
		c0.52,10.24,1.68,20.46,2.58,31.12c55.7,3.72,110.51,8.46,165.97,9.42c-0.96-5.35-1.93-9.23-2.32-13.16
		c-1.49-15,8.32-24.3,23.05-21.96c16.5,2.62,28.6,11.98,37.96,25.28C527.96,159.94,531.07,165.46,535.12,171.91z M-147.73,447.57
		c4.18-6.89,7.98-13.04,11.67-19.27c2.92-4.93,7.05-8.15,12.83-8.26c16.6-0.32,33.21-0.32,49.82-0.57
		c9.28-0.14,15.59,4.24,20.42,11.9c3.48,5.53,7.77,10.55,11.81,15.96c6.56-4.85,11.99-10.03,18.41-13.28c6-3.03,7.6-7.4,8.36-13.22
		c3.23-24.73,6.5-49.45,10.05-74.13c0.71-4.97-0.39-8.37-4.76-10.75c-10.78-5.87-21.02-13.21-32.41-17.43
		c-51.4-19.07-100.65-11.74-147.89,14.21c-3.1,1.7-5.76,4.21-9.56,7.04c7.88,25.85,15.58,51.27,23.43,76.64
		c0.97,3.13,2.16,6.61,4.35,8.85C-164.03,432.61-156.35,439.46-147.73,447.57z M262.64,534.89c-3.93-2.02-5.92-3.18-8.02-4.1
		c-18.89-8.31-37.77-16.65-56.71-24.84c-37.27-16.12-74.58-32.13-111.84-48.27c-5.13-2.22-9.75-5.26-15.85-5.3
		c-2.54-0.02-5.36-3.2-7.45-5.5c-1.24-1.36-1.32-3.79-2.47-7.54c-5.78,9.67-10.53,17.59-15.36,25.67
		c10.9,12.96,4.51,29.11,8.6,43.03c7.53,0,14.49,0.1,21.45-0.03c6.69-0.13,12.47,1.89,17.15,6.71
		c10.91,11.22,21.96,22.32,32.6,33.81c6.09,6.58,5.94,9.11,1.23,16.87c-3.58,5.9-7.19,11.78-10.86,17.78
		c9.45,9.08,23.54,10.03,30.14,21.52C186.78,585.85,222.09,557.49,262.64,534.89z M477.34,649.76c-10.74-5.97-6.23-15.13-7.03-23.42
		c-3.99-1.84-7.85-3.7-11.78-5.42c-47.9-20.91-95.86-41.69-143.66-62.82c-5.58-2.47-9.77-2.15-14.75,1
		c-21.39,13.53-42.8,27.02-64.48,40.09c-15.67,9.44-31.68,18.32-47.69,27.19c-10.18,5.65-20.64,10.78-30.92,16.26
		c-1.54,0.82-2.75,2.28-6.04,5.09c5.38,0.38,8.49,0.78,11.6,0.78c12.66-0.01,25.33-0.51,37.97-0.07c6.92,0.24,12.09-1.49,16.36-7.11
		c7.38-9.72,17.45-13.15,29.66-13.37c43.29-0.76,86.58-2.11,129.86-3.48c8.31-0.26,15.66,1.1,22.39,6.4
		c6.79,5.35,14.32,9.76,21.19,15.01c3.68,2.81,7.45,3.95,11.96,3.92C446.29,649.69,460.57,649.76,477.34,649.76z M794.91,448.61
		c8.8-6.84,17.13-13.32,25.97-20.18c0.71-22.88,1.33-46.17,2.24-69.44c0.19-4.8-3.12-6.23-6.11-8.16
		c-20.68-13.31-42.94-22.67-67.28-26.75c-10.4-1.74-20.84-3.2-31.11-4.77c-4.7,9.9-9.07,18.5-12.92,27.34
		c-10.24,23.49-20.35,47.05-30.23,70.7c-0.98,2.36-1.03,6.02,0.15,8.18c2.49,4.55,6.08,8.49,9.84,13.52
		c3.56-5.56,6.57-10.26,9.58-14.96c4.14-6.45,9.84-9.3,17.68-8.84c18.95,1.09,37.92,1.91,56.89,2.54
		c8.2,0.27,13.94,3.34,16.95,11.31C788.99,435.54,791.96,441.79,794.91,448.61z M27.29,153.28c0.31,0.88,0.62,1.77,0.92,2.65
		c51.15,1.28,102.31,2.56,153.43,3.84c3.45-32.32,6.82-63.97,10.39-97.42C136.11,92.72,80.36,120.56,27.29,153.28z M185.16,451.5
		c1.79,1.56,2.22,2.12,2.78,2.41c36.62,18.2,73.29,36.27,109.81,54.67c4.99,2.52,8.61,1.31,12.93-1.05
		c28.88-15.79,57.86-31.41,86.79-47.11c2.78-1.51,5.45-3.22,10.16-6.02C332.32,453.41,259.43,452.47,185.16,451.5z M-217.82,358.39
		c-12.92,14.46-23.06,28.88-32.59,44.31c13.42,12.5,26.25,24.46,39.98,37.24c5.04-2.17,11.63-5.01,18.1-7.79
		C-200.84,407.49-209.03,383.8-217.82,358.39z M23.47,450.79c8.41-15.74,16.83-31.5,25.36-47.49
		c-9.66-14.75-18.01-29.82-30.66-43.43c-0.85,2.83-1.55,4.3-1.71,5.84c-2.2,21.17-4.49,42.34-6.43,63.54
		C8.7,443.91,8.92,443.93,23.47,450.79z M848.67,376.16c0,21.71-0.07,41.26,0.12,60.82c0.02,1.59,1.43,3.65,2.82,4.55
		c0.82,0.54,3.3-0.31,4.26-1.29c6.95-7.08,13.7-14.36,20.66-21.72C869.76,403.08,862.56,388.73,848.67,376.16z"/>
	<path d="M-100.79,792.04c-55.16,1.36-113.09-46.07-111.59-116.27c1.09-50.93,38.32-104.45,110.46-105.61
		C-40.4,569.17,9.61,619.33,8.85,681.28C8.01,749.98-48.95,792.94-100.79,792.04z"/>
</g>
</svg>
